# xmcd
#
# Track frame offsets: 
#        150
#        4150
#        26125
#        64862
#        84142
#        120515
#        150850
#        167762
#        202392
#
# Disc length: 3156 seconds
#
# Revision: 1
# Processed by: cddbd v1.5.2PL0 Copyright (c) Steve Scherf et al.
# Submitted via: ExactAudioCopy v0.99pb4
#
DISCID=690c5209
DTITLE=Albert King - Thursday Night In San Francisco
DYEAR=1990
DGENRE=Blues
TTITLE0=San-Ho-Zay
TTITLE1=You Upset Me, Baby
TTITLE2=Call It Stormy Monday
TTITLE3=Everyday I Have The Blues
TTITLE4=Drifting Blues
TTITLE5=I've Made Nights By Myself
TTITLE6=Crosscut Saw
TTITLE7=I'm Gonna Move To The Outskirts Of Town
TTITLE8=Ooh-Ee-Baby
EXTD=Recorded in San Francisco, June 27, 1968\n\nLabel: Fantasy, Inc. 
EXTD=/ Stax Records\nCDSXE 032\nADD Mastering: Phil DeLancie (Fantasy 
EXTD=Studios, Berkeley)
EXTT0=
EXTT1=
EXTT2=
EXTT3=
EXTT4=
EXTT5=
EXTT6=
EXTT7=
EXTT8=
PLAYORDER=
